<?xml version="1.0" encoding="utf-8"?>
<!-- Generator: Adobe Illustrator 17.1.0, SVG Export Plug-In . SVG Version: 6.00 Build 0)  -->
<!DOCTYPE svg PUBLIC "-//W3C//DTD SVG 1.1//EN" "http://www.w3.org/Graphics/SVG/1.1/DTD/svg11.dtd">
<svg version="1.1" id="Layer_1" xmlns="http://www.w3.org/2000/svg" xmlns:xlink="http://www.w3.org/1999/xlink" x="0px" y="0px"
	 viewBox="0 0 54.6 82.6" enable-background="new 0 0 54.6 82.6" xml:space="preserve">
<g>
	<path fill="#FFE656" d="M0.6,28.4c0-3,2.5-5.5,5.6-5.5c0.3,0,0.6,0,0.9,0.1l-0.1-1.2c-0.9-0.2-1.6-1.1-1.6-2c0-1.2,0.9-2.1,2.1-2.1
		c1.2,0,2.1,0.9,2.1,2.1c0,0.7-0.4,1.3-0.9,1.7c0.4,0.4,1.3,1.6,1.4,3.4c0.1,0.2,0.3,0.4,0.4,0.6c0.2,0.1,0.3,0.2,0.5,0.4
		c0.1-0.4,0.5-0.7,0.9-0.7c0.2,0,0.3,0.1,0.4,0.2l-0.3-3.8h-0.2c-0.3,0-0.5-0.3-0.5-0.6v0c0-0.3,0.2-1.4,0.5-1.4h0.8
		c0,0,0.9-1,2.1-1h1.5c0.9,0,1.5-1.5,1.8-2.5c1.2-3.8,4.6-6.7,8.7-6.9c-0.9-0.5-1.5-1.7-1.5-3.1c0-1.3,0.8-2.4,1.6-3l-0.4-0.7V0.5h3
		v1.8L28.5,3c0.8,0.5,1.3,1.7,1.3,3c0,1.4-0.6,2.6-1.5,3.1c4,0.4,7.3,3.3,8.4,7c0.2,1,0.8,2.5,1.8,2.5h1.5c1.2,0,2.1,1,2.1,1h0.8
		c0.3,0-0.4,1.1-0.4,1.4v0c0,0.3,0.7,0.6,0.4,0.6h-0.2l-0.3,3.9c0.2-0.1,0.4-0.2,0.6-0.2c0.4,0,0.8,0.3,0.9,0.6
		c0.1-0.2,0.3-0.3,0.5-0.4c0.1-0.2,0.3-0.4,0.4-0.6c0.2-1.8,1-2.9,1.4-3.4c-0.5-0.4-0.9-1-0.9-1.7c0-1.2,0.9-2.1,2.1-2.1
		c1.2,0,2.1,0.9,2.1,2.1c0,1-0.7,1.8-1.6,2L47.6,23c0.3-0.1,0.6-0.1,0.9-0.1c3,0,5.5,2.5,5.6,5.5c0,0.5,0.2,4.8-4.9,8.4
		c-0.8,0.6-1.2,1.4-1.3,2.4c0,0.2-0.1,0.4-0.2,0.6c0.6,0,1.1,0.5,1.1,1.1c0,0.6-0.5,1.1-1.1,1.1c-0.5,0-1-0.4-1.1-0.9
		c-0.1-0.4-0.8-3.6,1.8-5.5c1.9-1.4,3.3-3,3.9-4.8c0.2-0.5,0.3-0.9,0.3-1.3c0-0.1,0-0.1,0-0.3c0-2-1.6-3.6-3.6-3.6
		c-0.7,0-1.3,0.1-1.9,0.3c0.2,0.3,0.3,0.7,0.3,1.1c0,1.2-0.9,2.1-2.1,2.1c-0.7,0-1.3-0.3-1.7-0.9c0,0-0.2-0.2-0.2-0.3
		c-0.1-0.3-0.2-0.6-0.2-0.9c0-0.1,0-0.1,0-0.2c-0.1,0.1-0.3,0.1-0.4,0.1c-0.3,0-0.5-0.1-0.7-0.3l-0.8,12.6c0,0.5,0,1-0.1,1.5
		c0.1-0.1,0.2-0.2,0.3-0.3c0.7-0.8,1.6-1.1,2.4-1.1c0,0,0,0,0,0c0.9,0,1.6,0.4,1.9,0.6c0.3,0.2,0.5,0.5,0.5,0.8
		c0,0.6-0.5,1.1-1.1,1.1s-1.1-0.5-1.1-1.1c0-0.2,0-0.3,0.1-0.5c-0.1,0-0.2,0-0.3,0c-0.5,0-1,0.3-1.5,0.9c-0.4,0.5-0.6,1-0.6,1.5
		c0,0.3,0.2,0.6,0.3,0.8c0.2-0.1,0.4-0.2,0.7-0.2c0.6,0,1.1,0.5,1.1,1.1s-0.5,1.1-1.1,1.1c-0.4,0-0.7-0.2-0.9-0.5
		c-0.3-0.3-0.9-0.7-1.1-1.6c-1,3.8-3.5,6.9-6.7,8.9h0.1c-2.3,1-2.6,5.9,1.2,7.2c3.7,1.3,3.6,2.8,3.6,3.8h0.4v1h1v15h-26v-15h1v-1
		h0.2c0-1-0.2-2.5,3.6-3.8c3.8-1.3,3.5-6.2,1.2-7.2h0.2c-3.2-2-5.6-5-6.7-8.8c-0.3,0.7-0.8,1.2-1.1,1.5c-0.2,0.3-0.5,0.4-0.9,0.4
		c-0.6,0-1.1-0.5-1.1-1.1c0-0.6,0.5-1.1,1.1-1.1c0.3,0,0.5,0.1,0.7,0.2c0.1-0.2,0.3-0.5,0.3-0.8c0.1-0.5-0.1-1-0.6-1.5
		c-0.5-0.6-1-0.9-1.5-0.9c-0.1,0-0.2,0-0.3,0c0.1,0.1,0.1,0.3,0.1,0.5c0,0.6-0.5,1.1-1.1,1.1s-1.1-0.5-1.1-1.1
		c0-0.4,0.2-0.6,0.5-0.8c0.3-0.2,1-0.6,1.9-0.6c0,0,0,0,0,0c0.9,0,1.7,0.3,2.4,1.1c0.1,0.1,0.1,0.1,0.2,0.2c0-0.4-0.1-0.9-0.1-1.4
		l-0.8-12.6c-0.2,0.1-0.3,0.2-0.6,0.2c-0.1,0-0.3,0-0.4-0.1c0,0.1,0,0.1,0,0.2c0,0.3-0.1,0.7-0.2,0.9c0,0.1-0.2,0.3-0.2,0.3
		c-0.4,0.5-1,0.9-1.7,0.9c-1.2,0-2.1-0.9-2.1-2.1c0-0.4,0.1-0.8,0.3-1.1c-0.5-0.2-1.2-0.3-1.9-0.3c-2,0-3.6,1.6-3.6,3.6
		c0,0.1,0,0.2,0,0.3c0.1,0.4,0.2,0.8,0.3,1.3c0.6,1.8,2,3.4,3.9,4.8c2.6,1.9,1.9,5.1,1.8,5.5C8.1,41.6,7.6,42,7.1,42
		C6.5,42,6,41.5,6,40.9c0-0.6,0.5-1.1,1.1-1.1c-0.1-0.2-0.2-0.4-0.2-0.6c-0.1-1.1-0.6-1.9-1.3-2.4C0.4,33.2,0.6,28.9,0.6,28.4z"/>
	<rect x="12.4" y="78.5" width="30" height="4"/>
</g>
</svg>
